<svg width="1440" height="1024" viewBox="0 0 1440 1024" fill="none" xmlns="http://www.w3.org/2000/svg">
<g clip-path="url(#clip0_11_159)">
<g filter="url(#filter0_f_11_159)">
<ellipse cx="797.798" cy="1048.77" rx="592.5" ry="327" transform="rotate(-6.48121 797.798 1048.77)" fill="#8349FF"/>
</g>
<g filter="url(#filter1_f_11_159)">
<path d="M1214.17 847.476C1268.15 770.998 1271.24 712.625 1298.17 622.976C1350.17 449.922 1311.87 336.275 1373.67 166.476C1499.77 -179.99 1717.83 910.617 1407.67 1109.98C1212.7 1235.3 642.183 1265.34 814.174 1109.98C882.862 1047.93 948.602 1054.48 1026.17 1003.98C1106.23 951.855 1159.09 925.521 1214.17 847.476Z" fill="url(#paint0_linear_11_159)"/>
</g>
<g filter="url(#filter2_f_11_159)">
<path d="M131.055 899.922C-10.7521 909.251 -103.304 961.596 -193.327 1083.38C-375.696 1330.1 689.813 1408.47 541.423 1137.43C447.86 966.527 312.187 888.005 131.055 899.922Z" fill="#0013FF"/>
</g>
<g filter="url(#filter3_f_11_159)">
<path d="M137.014 968.331C19.1052 976.088 -57.8496 1019.61 -132.701 1120.87C-284.337 1326.01 601.609 1391.18 478.226 1165.81C400.43 1023.71 287.621 958.422 137.014 968.331Z" fill="#00FFFF"/>
</g>
</g>
<defs>
<filter id="filter0_f_11_159" x="-92.0911" y="416.978" width="1779.78" height="1263.58" filterUnits="userSpaceOnUse" color-interpolation-filters="sRGB">
<feFlood flood-opacity="0" result="BackgroundImageFix"/>
<feBlend mode="normal" in="SourceGraphic" in2="BackgroundImageFix" result="shape"/>
<feGaussianBlur stdDeviation="150" result="effect1_foregroundBlur_11_159"/>
</filter>
<filter id="filter1_f_11_159" x="532.281" y="-151" width="1284.19" height="1616.53" filterUnits="userSpaceOnUse" color-interpolation-filters="sRGB">
<feFlood flood-opacity="0" result="BackgroundImageFix"/>
<feBlend mode="normal" in="SourceGraphic" in2="BackgroundImageFix" result="shape"/>
<feGaussianBlur stdDeviation="125" result="effect1_foregroundBlur_11_159"/>
</filter>
<filter id="filter2_f_11_159" x="-514.398" y="598.744" width="1370.05" height="1008.95" filterUnits="userSpaceOnUse" color-interpolation-filters="sRGB">
<feFlood flood-opacity="0" result="BackgroundImageFix"/>
<feBlend mode="normal" in="SourceGraphic" in2="BackgroundImageFix" result="shape"/>
<feGaussianBlur stdDeviation="150" result="effect1_foregroundBlur_11_159"/>
</filter>
<filter id="filter3_f_11_159" x="-350.221" y="767.352" width="1040.28" height="740.033" filterUnits="userSpaceOnUse" color-interpolation-filters="sRGB">
<feFlood flood-opacity="0" result="BackgroundImageFix"/>
<feBlend mode="normal" in="SourceGraphic" in2="BackgroundImageFix" result="shape"/>
<feGaussianBlur stdDeviation="100" result="effect1_foregroundBlur_11_159"/>
</filter>
<linearGradient id="paint0_linear_11_159" x1="1320.67" y1="483.976" x2="1123.67" y2="1054.98" gradientUnits="userSpaceOnUse">
<stop stop-color="#FF0095"/>
<stop offset="1" stop-color="#FFCDFF"/>
</linearGradient>
<clipPath id="clip0_11_159">
<rect width="1440" height="1024" fill="white"/>
</clipPath>
</defs>
</svg>
