<svg width="802" height="136" viewBox="0 0 802 136" fill="none" xmlns="http://www.w3.org/2000/svg">
<g clip-path="url(#clip0_14_166)">
<path d="M222.47 33.78C219.62 33.78 217.18 32.78 215.15 30.78C213.12 28.78 212.11 26.38 212.11 23.58C212.11 20.78 213.12 18.23 215.15 16.26C217.18 14.29 219.62 13.3 222.47 13.3C225.32 13.3 227.83 14.29 229.83 16.26C231.83 18.23 232.83 20.68 232.83 23.58C232.83 26.48 231.83 28.78 229.83 30.78C227.83 32.78 225.37 33.78 222.47 33.78ZM213.5 133.68V47.11H231.44V133.68H213.5Z" fill="#F6F6F6"/>
<path d="M303.27 135.65C291.8 135.65 281.9 133.17 273.56 128.2C265.22 123.24 258.8 116.16 254.31 106.97C249.81 97.78 247.56 86.91 247.56 74.34V74.18C247.56 61.62 249.82 50.76 254.35 41.59C258.88 32.43 265.31 25.37 273.65 20.4C281.99 15.44 291.86 12.95 303.27 12.95C314.68 12.95 324.47 15.45 332.81 20.44C341.15 25.43 347.57 32.5 352.06 41.63C356.56 50.76 358.81 61.61 358.81 74.17V74.33C358.81 86.89 356.56 97.75 352.06 106.92C347.56 116.08 341.16 123.16 332.85 128.15C324.54 133.14 314.68 135.64 303.27 135.64V135.65ZM303.27 119.28C310.84 119.28 317.37 117.44 322.85 113.77C328.34 110.1 332.56 104.88 335.52 98.14C338.48 91.39 339.96 83.47 339.96 74.36V74.2C339.96 65.04 338.46 57.1 335.48 50.38C332.49 43.66 328.24 38.48 322.73 34.83C317.22 31.18 310.73 29.36 303.27 29.36C295.81 29.36 289.24 31.17 283.73 34.79C278.22 38.41 273.95 43.58 270.94 50.3C267.92 57.02 266.41 64.99 266.41 74.21V74.37C266.41 83.53 267.92 91.49 270.94 98.23C273.96 104.98 278.21 110.18 283.69 113.82C289.18 117.47 295.7 119.29 303.27 119.29V119.28Z" fill="#F6F6F6"/>
<path d="M416.91 135.65C408.02 135.65 400.25 134.31 393.58 131.62C386.91 128.93 381.63 125.08 377.74 120.06C373.84 115.04 371.65 109.05 371.16 102.08L371.08 100.85H389.1L389.27 101.92C389.82 105.54 391.34 108.68 393.84 111.34C396.34 114 399.61 116.04 403.67 117.47C407.73 118.9 412.39 119.61 417.66 119.61C422.93 119.61 427.56 118.87 431.4 117.39C435.24 115.91 438.22 113.8 440.33 111.05C442.44 108.31 443.5 105.1 443.5 101.42V101.34C443.5 96.57 441.79 92.77 438.36 89.94C434.93 87.11 429.27 84.85 421.37 83.15L408.45 80.43C396.82 77.96 388.15 74 382.45 68.54C376.74 63.08 373.89 55.96 373.89 47.19V47.11C373.94 40.36 375.81 34.43 379.49 29.3C383.16 24.17 388.24 20.17 394.71 17.29C401.18 14.41 408.62 12.97 417.01 12.97C425.4 12.97 432.51 14.37 438.82 17.17C445.13 19.97 450.12 23.88 453.8 28.9C457.47 33.92 459.53 39.78 459.97 46.47L460.05 47.79H442.03L441.86 46.72C441.37 42.99 440.01 39.81 437.79 37.18C435.57 34.55 432.67 32.53 429.11 31.13C425.54 29.73 421.4 29.03 416.68 29.03C411.96 29.03 407.55 29.76 403.93 31.21C400.31 32.66 397.51 34.68 395.54 37.26C393.56 39.84 392.58 42.88 392.58 46.39V46.47C392.58 50.91 394.33 54.53 397.85 57.33C401.36 60.13 406.82 62.32 414.23 63.91L427.15 66.71C435.32 68.41 441.99 70.71 447.15 73.62C452.31 76.53 456.12 80.15 458.59 84.48C461.06 88.81 462.29 94.05 462.29 100.2V100.28C462.29 107.52 460.47 113.79 456.82 119.08C453.17 124.37 447.96 128.46 441.19 131.34C434.41 134.22 426.34 135.66 416.96 135.66L416.91 135.65Z" fill="#F6F6F6"/>
<path d="M512.78 133.68V14.94H531.21V117.72H586.59V133.68H512.78Z" fill="#F6F6F6"/>
<path d="M593.5 133.68L636.7 14.94H651.68V34.61H646.5L612.93 133.68H593.51H593.5ZM614.48 101.59L619.83 86.78H673.48L678.83 101.59H614.48ZM680.39 133.68L646.9 34.61V14.94H656.69L699.81 133.68H680.39Z" fill="#F6F6F6"/>
<path d="M712.9 133.68V14.94H731.33V133.68H712.9ZM722.11 133.68V118.62H756.84C765.07 118.62 771.35 116.97 775.68 113.68C780.01 110.39 782.18 105.59 782.18 99.28V99.12C782.18 94.84 781.18 91.28 779.18 88.42C777.18 85.57 774.2 83.41 770.25 81.96C766.3 80.51 761.39 79.78 755.52 79.78H722.11V65.54H751.82C759.94 65.54 766.14 63.95 770.42 60.77C774.7 57.59 776.84 53.03 776.84 47.11V46.95C776.84 41.46 775.02 37.27 771.37 34.36C767.72 31.45 762.55 30 755.86 30H722.12V14.94H760.3C767.38 14.94 773.53 16.16 778.77 18.6C784.01 21.04 788.07 24.5 790.95 28.97C793.83 33.44 795.27 38.67 795.27 44.64V44.81C795.27 48.98 794.31 52.93 792.39 56.66C790.47 60.39 787.85 63.52 784.53 66.04C781.21 68.56 777.44 70.13 773.22 70.73V71.06C778.87 71.61 783.79 73.19 787.99 75.79C792.19 78.39 795.42 81.77 797.7 85.91C799.98 90.05 801.12 94.76 801.12 100.02V100.18C801.12 107.15 799.49 113.13 796.22 118.12C792.96 123.11 788.31 126.95 782.27 129.64C776.23 132.33 768.99 133.67 760.55 133.67H722.12L722.11 133.68Z" fill="#F6F6F6"/>
<path d="M138.96 95.43C138.96 95.43 138.96 95.42 138.95 95.41C139.17 94.65 139.4 93.9 139.6 93.13C147.93 59.93 127.59 20.67 93.17 0C108.25 20.45 114.92 45.22 109 66.88C108.47 68.81 107.84 70.67 107.13 72.47C106.37 71.97 105.41 71.4 104.12 70.69C104.12 70.69 69.88 49.55 32.77 12.15C31.8 11.17 52.56 41.83 76.12 66.72C65.02 60.49 34.08 37.98 14.49 20.05C16.9 24.06 19.76 27.93 22.9 31.65C39.26 52.39 60.59 77.99 86.14 97.64C68.18 108.63 42.81 109.48 17.55 97.65C11.3 94.72 5.42999 91.19 -0.0100098 87.17C10.68 104.27 27.15 119.03 47.2 127.65C71.1 137.92 94.87 137.23 112.58 127.82V127.84C112.65 127.79 112.75 127.73 112.83 127.68C113.56 127.29 114.28 126.89 114.98 126.47C123.49 122.05 140.29 117.58 149.31 135.12C151.52 139.41 156.21 116.66 138.96 95.43Z" fill="white"/>
</g>
<defs>
<clipPath id="clip0_14_166">
<rect width="801.11" height="135.65" fill="white"/>
</clipPath>
</defs>
</svg>
