<svg width="395" height="130" viewBox="0 0 395 130" fill="none" xmlns="http://www.w3.org/2000/svg">
<g clip-path="url(#clip0_15_176)">
<path d="M218.367 12.8385C232.926 9.85804 249.003 16.041 256.932 28.7179C268.476 46.4996 266.305 73.0044 249.879 87.1392C236.817 98.2774 215.811 98.443 202.444 87.7207C182.432 71.292 182.464 36.48 202.517 20.0997C207.176 16.5701 212.532 13.7835 218.367 12.8425V12.8385ZM221.52 23.8879C211.371 25.2812 204.412 34.6586 202.619 44.1855C200.241 55.7841 201.6 69.5272 210.345 78.3069C216.813 84.6878 227.249 85.7419 235.43 82.3212C243.724 78.5775 248.236 69.7493 249.502 61.1311C251.048 50.7885 249.64 39.1818 242.713 30.923C237.637 24.8288 229.193 22.543 221.516 23.8879H221.52Z" fill="white"/>
<path d="M282.97 18.9003C293.017 11.1867 307.304 10.5527 318.918 14.8456C328.34 18.2138 335.197 27.5427 334.941 37.6067C330.291 37.5906 325.649 37.6148 321.007 37.5906C321.182 28.4756 312.38 23.4598 303.701 23.6011C297.371 23.7708 288.838 26.42 289.053 33.9519C288.748 41.9037 297.842 44.1815 303.997 45.6555C312.969 48.6682 323.519 48.8904 330.758 55.6307C338.61 62.8556 339.308 76.114 332.783 84.397C323.56 95.9957 306.489 97.2234 293.001 93.9805C280.722 91.3595 271.507 79.6881 271.99 67.1728C276.648 67.1485 281.314 67.1485 285.973 67.1728C286.046 72.2088 287.908 77.5073 292.258 80.4231C300.264 85.4269 311.967 85.8953 319.688 80.1203C324.684 75.8515 324.42 66.3933 318.313 63.2473C307.187 58.0538 294.084 58.0942 283.453 51.7416C272.079 44.7145 272.647 26.5977 282.974 18.9043L282.97 18.9003Z" fill="white"/>
<path d="M346.944 13.2585C362.952 13.2666 378.964 13.2423 394.971 13.2746C394.947 14.7891 394.939 16.3116 394.939 17.822C380.242 17.822 365.545 17.8059 350.848 17.8382C350.807 26.731 350.848 35.6279 350.831 44.5288C350.247 44.5611 349.062 44.6176 348.478 44.6499C364.023 50.5139 379.296 57.0684 394.833 62.9646C394.931 64.7012 394.971 66.4377 394.98 68.1743C378.964 74.43 362.952 80.6978 346.928 86.9211C346.944 85.2815 346.952 83.6378 346.977 81.9982C351.89 79.9345 357.157 78.4847 361.808 75.9525C361.921 68.776 361.897 61.5875 361.799 54.411C356.837 52.6098 351.972 50.5785 347.005 48.8096C346.847 36.9646 346.964 25.1075 346.94 13.2625L346.944 13.2585ZM365.78 55.8972C365.756 62.1529 365.764 68.4126 365.78 74.6682C373.961 71.5949 382.181 68.6064 390.313 65.412C382.125 62.274 373.969 59.0472 365.78 55.9012V55.8972Z" fill="white"/>
<path d="M163.303 14.0581C167.56 14.0581 171.821 14.0258 176.077 14.0823C176.061 18.0562 176.045 22.0342 176.093 26.0081C171.837 26.1979 167.568 26.0969 163.303 26.0808C163.279 22.0746 163.279 18.0643 163.303 14.0581Z" fill="white"/>
<path d="M163.312 36.0438C167.532 36.0196 171.756 36.0761 175.984 35.9954C176.191 55.2187 175.976 74.4421 176.089 93.6574C171.825 93.7301 167.564 93.6897 163.308 93.6897C163.291 74.4744 163.275 55.2591 163.316 36.0438H163.312Z" fill="white"/>
<path d="M346.944 91.3352C362.944 91.3352 378.939 91.3271 394.939 91.3352C394.781 99.5334 395.385 107.772 394.513 115.946C394.184 120.974 390.638 126.079 385.338 126.684C379.767 127.71 374.147 124.229 372.378 118.934C370.994 130.416 353.359 132.031 348.965 121.907C345.179 112.21 347.63 101.48 346.94 91.3392L346.944 91.3352ZM350.852 95.9149C351.083 103.148 350.162 110.526 351.635 117.67C353.1 124.419 363.098 126.402 367.371 121.24C372.053 113.705 369.205 104.263 369.996 95.8987C363.617 95.8987 357.231 95.8826 350.848 95.9149H350.852ZM373.912 95.9068C374.346 103.075 372.824 110.559 374.999 117.497C377.32 124.245 388.439 123.72 390.265 116.899C391.835 110.042 390.711 102.885 391.031 95.9068C385.322 95.8826 379.617 95.8826 373.908 95.9068H373.912Z" fill="white"/>
<path d="M163.259 105.28H170.936C177.035 105.28 181.267 109.145 181.267 114.981C181.267 120.816 177.035 124.653 170.936 124.653H163.259V105.276V105.28ZM170.932 121.026C174.783 121.026 177.031 118.268 177.031 114.985C177.031 111.701 174.929 108.915 170.932 108.915H167.402V121.03H170.932V121.026Z" fill="white"/>
<path d="M190.519 110.276C194.722 110.276 197.583 113.414 197.583 118.002V118.813H187.106C187.341 120.586 188.77 122.068 191.164 122.068C192.479 122.068 194.025 121.547 194.929 120.675L196.565 123.058C195.165 124.338 192.945 125.004 190.758 125.004C186.469 125.004 183.227 122.129 183.227 117.626C183.227 113.559 186.234 110.276 190.523 110.276H190.519ZM187.045 116.318H193.992C193.903 114.981 192.97 113.208 190.519 113.208C188.214 113.208 187.22 114.92 187.045 116.318Z" fill="white"/>
<path d="M198.253 110.623H202.221L205.897 120.384L209.574 110.623H213.571L207.906 124.653H203.909L198.249 110.623H198.253Z" fill="white"/>
<path d="M221.633 110.276C225.837 110.276 228.698 113.414 228.698 118.002V118.813H218.221C218.456 120.586 219.884 122.068 222.278 122.068C223.593 122.068 225.139 121.547 226.044 120.675L227.679 123.058C226.279 124.338 224.06 125.004 221.873 125.004C217.584 125.004 214.342 122.129 214.342 117.626C214.342 113.559 217.348 110.276 221.637 110.276H221.633ZM218.16 116.318H225.107C225.017 114.981 224.084 113.208 221.633 113.208C219.329 113.208 218.334 114.92 218.16 116.318Z" fill="white"/>
<path d="M231.384 105.28H235.093V124.657H231.384V105.28Z" fill="white"/>
<path d="M237.86 117.626C237.86 113.648 240.664 110.276 245.302 110.276C249.94 110.276 252.772 113.644 252.772 117.626C252.772 121.608 249.969 125.004 245.302 125.004C240.636 125.004 237.86 121.636 237.86 117.626ZM248.926 117.626C248.926 115.449 247.611 113.559 245.306 113.559C243.001 113.559 241.715 115.449 241.715 117.626C241.715 119.803 242.997 121.721 245.306 121.721C247.615 121.721 248.926 119.831 248.926 117.626Z" fill="white"/>
<path d="M255.52 130V110.623H259.228V112.396C260.308 111.031 261.854 110.276 263.578 110.276C267.198 110.276 269.823 112.949 269.823 117.626C269.823 122.303 267.198 125.004 263.578 125.004C261.915 125.004 260.369 124.306 259.228 122.856V130.004H255.52V130ZM262.41 113.559C261.213 113.559 259.841 114.258 259.228 115.158V120.126C259.841 120.998 261.213 121.725 262.41 121.725C264.54 121.725 265.972 120.069 265.972 117.63C265.972 115.191 264.544 113.563 262.41 113.563V113.559Z" fill="white"/>
<path d="M290.079 115.797C290.079 114.488 289.495 113.559 287.977 113.559C286.663 113.559 285.583 114.432 285.06 115.187V124.657H281.323V115.797C281.323 114.488 280.738 113.559 279.221 113.559C277.934 113.559 276.855 114.432 276.303 115.215V124.657H272.594V110.627H276.303V112.457C276.887 111.613 278.754 110.28 280.913 110.28C283.071 110.28 284.297 111.237 284.824 112.836C285.64 111.556 287.511 110.28 289.669 110.28C292.266 110.28 293.812 111.645 293.812 114.52V124.657H290.075V115.797H290.079Z" fill="white"/>
<path d="M303.855 110.276C308.059 110.276 310.92 113.414 310.92 118.002V118.813H300.443C300.678 120.586 302.106 122.068 304.5 122.068C305.815 122.068 307.361 121.547 308.266 120.675L309.901 123.058C308.501 124.338 306.282 125.004 304.095 125.004C299.806 125.004 296.563 122.129 296.563 117.626C296.563 113.559 299.57 110.276 303.859 110.276H303.855ZM300.382 116.318H307.329C307.239 114.981 306.306 113.208 303.855 113.208C301.55 113.208 300.556 114.92 300.382 116.318Z" fill="white"/>
<path d="M323.121 116.172C323.121 114.226 322.099 113.559 320.524 113.559C319.064 113.559 317.927 114.371 317.315 115.215V124.657H313.606V110.627H317.315V112.457C318.22 111.382 319.94 110.28 322.249 110.28C325.341 110.28 326.83 112.025 326.83 114.755V124.661H323.121V116.18V116.172Z" fill="white"/>
<path d="M331.237 121.168V113.846H328.904V110.623H331.237V106.787H334.974V110.623H337.835V113.846H334.974V120.178C334.974 121.051 335.441 121.717 336.26 121.717C336.816 121.717 337.34 121.515 337.547 121.309L338.334 124.1C337.778 124.592 336.788 125 335.242 125C332.645 125 331.245 123.664 331.245 121.164L331.237 121.168Z" fill="white"/>
<path d="M118.721 81.146C118.721 81.146 118.713 81.1379 118.709 81.1339C118.9 80.4918 119.095 79.8537 119.261 79.1914C126.382 50.9581 109.003 17.5756 79.5966 0C92.4839 17.3858 98.181 38.4467 93.121 56.8664C92.6706 58.5101 92.1269 60.0851 91.5263 61.6198C90.8771 61.1957 90.0534 60.7111 88.9537 60.1053C88.9537 60.1053 59.7015 42.1299 27.9944 10.3346C27.1626 9.4986 44.903 35.5673 65.0334 56.7372C55.5505 51.4386 29.1184 32.3001 12.3843 17.0547C14.4416 20.4672 16.8843 23.7546 19.5746 26.9167C33.5494 44.553 51.7727 66.3166 73.6033 83.028C58.2651 92.3691 36.5887 93.096 15.0056 83.036C9.66967 80.5483 4.65025 77.5436 0.00415039 74.1311C9.13811 88.6738 23.2103 101.221 40.334 108.547C60.7565 117.283 81.0614 116.689 96.1886 108.689L96.1765 108.705C96.2455 108.66 96.3347 108.616 96.4037 108.572C97.0245 108.24 97.6413 107.901 98.2459 107.542C105.513 103.786 119.866 99.9776 127.571 114.9C129.458 118.551 133.467 99.2022 118.725 81.15L118.721 81.146Z" fill="white"/>
</g>
<defs>
<clipPath id="clip0_15_176">
<rect width="395" height="130" fill="white"/>
</clipPath>
</defs>
</svg>
